<svg width="1190" height="153" viewBox="0 0 1190 153" fill="none" xmlns="http://www.w3.org/2000/svg">
<path fill-rule="evenodd" clip-rule="evenodd" d="M135.805 94C128.831 118.81 106.04 137 79 137C46.4152 137 20 110.585 20 78C20 45.4152 46.4152 19 79 19C97.2879 19 113.632 27.3205 124.454 40.3825L136.781 30.1811C123.024 13.577 102.247 3 79 3C37.5786 3 4 36.5786 4 78C4 119.421 37.5786 153 79 153C101.265 153 121.264 143.298 135 127.891V150H154V114V111L148.713 105.713L137 94H152.29H154V78H138H78V94H135.805ZM237.519 6H174.02L174.02 150H192.841V111.892L175 94H220L270.5 150H293.647L241.047 92.6083H243.522C270.617 91.3867 290.066 74.2253 290.066 49.7146C290.066 23.1615 269.177 6 237.519 6ZM271.245 49.7146C271.245 66.6758 258.408 78 237.519 78H192.841V22.3404H237.519C258.428 22.3404 271.245 32.7534 271.245 49.7146ZM351.973 6H377.615L419.809 117.72H327.385L314.98 150H297L351.973 6ZM419.821 117.753L419.809 117.72H419.858L419.821 117.753ZM419.821 117.753L432 150H414.02L406.297 129.895L419.821 117.753ZM396.223 102.421L365.615 22.3404H363.75L332.939 102.421H396.203H396.223ZM863.615 6H837.973L783 150H800.98L813.385 117.72H905.809L905.821 117.753L892.277 129.855L900.02 150H918L905.821 117.753L905.858 117.72H905.809L863.615 6ZM851.615 22.3404L882.223 102.421H882.203H818.939L849.75 22.3404H851.615ZM425.47 6.00164L406 6L447.246 78.0016H466.682L425.47 6.00164ZM530 6.00001L510.53 6.00165L458.493 96.9709V149.995L477.507 150.002V97.6779L530 6.00001ZM1050.01 70.3196V134.352H1133V150H1031.03V95.6127V83.4273V6H1134V22H1050.01V70H1067.5H1108.52V86H1064.34L1050.01 70.3196ZM1160.97 25C1167.43 25 1172 20.437 1172 13.9728C1172 7.5358 1167.43 3 1160.97 3C1154.57 3 1150 7.64445 1150 13.9728C1150 20.437 1154.57 25 1160.97 25ZM1161 23.479C1155.53 23.479 1151.66 19.5407 1151.66 13.9728C1151.66 8.54074 1155.53 4.54815 1161 4.54815C1166.47 4.54815 1170.34 8.54074 1170.34 13.9728C1170.34 19.5407 1166.47 23.479 1161 23.479ZM1156.51 20.6H1158.22V15.2222H1160.28L1164.31 20.6H1166.5L1162.23 15.1679H1162.31C1164.76 15.1679 1166.61 13.5383 1166.61 11.2568C1166.61 8.86667 1164.76 7.1284 1162.31 7.1284H1156.51V20.6ZM1158.22 13.7556V8.64938H1162.07C1163.64 8.64938 1164.9 9.68148 1164.9 11.2296C1164.9 12.7778 1163.7 13.7556 1162.07 13.7556H1158.22ZM550.731 43.7285C550.731 62.1936 568.943 65.5828 589.092 68.7577H589.111C613.913 72.926 642 78.4967 642 110.285C642 136.502 622.44 153 588.921 153C553.162 153 531.114 133.814 531 102.766V102.552V102.533V94H548.414V102.533C548.604 124.192 563.531 137.106 589.092 137.106C611.368 137.106 624.339 127.172 624.339 111.473C624.339 92.2092 605.348 89.0148 584.819 85.6451C560.208 81.6716 533.089 75.127 533.089 44.7219C533.089 19.4979 551.301 3 584.819 3C618.338 3 638.677 22.3935 638.867 52H621.813C621.813 32.1325 608.254 18.894 584.819 18.894C562.733 18.894 550.731 28.633 550.731 43.7285ZM766.442 114.984C757.28 128.266 741.403 137.089 724.264 137.089C692.781 137.089 670.013 112.257 670.013 77.8831C670.013 43.509 692.587 18.8725 724.264 18.8725C741.287 18.8725 756.892 27.5001 765.937 40.7824C766.678 40.1232 770.954 36.0045 774.275 32.8069L774.28 32.8021L774.295 32.7877C776.36 30.7983 778.051 29.1698 778.282 28.9608C765.724 13.1078 745.887 3 724.264 3C682.3 3 652.001 34.3944 652.001 77.9026C651.807 121.411 682.3 153 724.264 153C746.275 153 766.519 142.873 779 127.098C778.619 126.694 775.113 123.329 771.898 120.242L771.891 120.237C769.215 117.668 766.741 115.293 766.442 114.984ZM946.796 6H929V150H1020.07V134H931L946.796 118.5V6Z" fill="#2E234B"/>
</svg>
