<svg xmlns="http://www.w3.org/2000/svg" width="1200" height="630" viewBox="0 0 1200 630" role="img" aria-labelledby="title desc">
  <title id="title">Bitcoin Savjetovanje</title>
  <desc id="desc">Bitcoin plan za kapital, neto imovinu i pravila odluka, Pavao Pahljina.</desc>
  <rect width="1200" height="630" fill="#f7f5ef"/>
  <path d="M130 506h940" stroke="#ded7cb" stroke-width="2"/>
  <circle cx="986" cy="156" r="76" fill="#f7931a"/>
  <circle cx="986" cy="156" r="50" fill="none" stroke="#f7f5ef" stroke-width="10"/>
  <path d="M969 112v88M994 112v88M951 132h53c17 0 27 8 27 22 0 11-6 18-17 21 14 3 22 12 22 25 0 16-12 26-31 26h-54" fill="none" stroke="#f7f5ef" stroke-width="12" stroke-linecap="round" stroke-linejoin="round"/>
  <path d="M130 120h560" stroke="#ded7cb" stroke-width="2"/>
  <text x="130" y="185" fill="#191816" font-family="Geist, Inter, Arial, sans-serif" font-size="32" font-weight="600" letter-spacing=".08em">BITCOIN SAVJETOVANJE</text>
  <text x="130" y="292" fill="#191816" font-family="Geist, Inter, Arial, sans-serif" font-size="58" font-weight="700">Bitcoin plan za kapital,</text>
  <text x="130" y="368" fill="#191816" font-family="Geist, Inter, Arial, sans-serif" font-size="58" font-weight="700">neto imovinu i pravila odluka</text>
  <text x="130" y="548" fill="#191816" font-family="Geist, Inter, Arial, sans-serif" font-size="34" font-weight="500">Pavao Pahljina</text>
  <text x="130" y="590" fill="#6b665d" font-family="Geist, Inter, Arial, sans-serif" font-size="24">Bitcoin Savjetovanje</text>
  <rect x="130" y="430" width="188" height="44" rx="22" fill="#fffaf0" stroke="#e4d8c7"/>
  <text x="154" y="459" fill="#6f4d16" font-family="Geist, Inter, Arial, sans-serif" font-size="20" font-weight="600">budžet i dug</text>
  <rect x="338" y="430" width="256" height="44" rx="22" fill="#fffaf0" stroke="#e4d8c7"/>
  <text x="362" y="459" fill="#6f4d16" font-family="Geist, Inter, Arial, sans-serif" font-size="20" font-weight="600">pravila odluka</text>
  <rect x="614" y="430" width="288" height="44" rx="22" fill="#fffaf0" stroke="#e4d8c7"/>
  <text x="638" y="459" fill="#6f4d16" font-family="Geist, Inter, Arial, sans-serif" font-size="20" font-weight="600">skrbništvo i pristup</text>
</svg>
