<svg width="140" height="140" viewBox="0 0 140 140" fill="none" xmlns="http://www.w3.org/2000/svg">
<path d="M0.240234 11.2095H13.3552V14.8014H9.03139V27.4479H4.51919V14.8014H0.240234V11.2095Z" fill="#414042"/>
<path d="M25.0433 20.9286H19.5444V27.4479H15.0352V11.2095H19.5444V17.3127H25.0433V11.2095H29.5525V27.4479H25.0433V20.9286Z" fill="#414042"/>
<path d="M42.5068 14.8253H36.6401V17.4744H41.8161V20.9077H36.6401V23.8321H42.5068V27.4479H32.1309V11.2095H42.5068V14.8253Z" fill="#414042"/>
<path d="M52.768 27.4479H44.7363V11.2095H52.5138C55.803 11.2095 57.8304 12.7301 57.8304 15.424C57.8304 17.3816 56.6791 18.6717 55.0914 19.1087C57.023 19.5457 58.1982 21.183 58.1982 23.0239C58.1982 25.7657 56.2426 27.4479 52.768 27.4479ZM51.5241 14.8014H49.2455V17.657H51.5241C52.6274 17.657 53.2255 17.196 53.2255 16.2531C53.2285 15.2863 52.6304 14.8014 51.5241 14.8014ZM51.847 20.8598H49.2455V23.8081H51.8679C52.9952 23.8081 53.5693 23.3472 53.5693 22.3803C53.5723 21.3896 52.9504 20.8598 51.847 20.8598Z" fill="#F78F29"/>
<path d="M60.1758 11.2095H64.685V27.4479H60.1758V11.2095Z" fill="#F78F29"/>
<path d="M66.3652 11.2095H79.4802V14.8014H75.1534V27.4479H70.6442V14.8014H66.3652V11.2095Z" fill="#F78F29"/>
<path d="M88.6839 11.0479C92.7566 11.0479 95.6571 13.3976 96.4614 17.0823H91.6053C91.0312 15.861 89.9488 15.1935 88.6151 15.1935C86.5429 15.1935 85.1854 16.8069 85.1854 19.2943C85.1854 21.8056 86.5429 23.416 88.6151 23.416C89.9488 23.416 91.0312 22.7485 91.6053 21.5273H96.4614C95.6571 25.212 92.7566 27.5617 88.6839 27.5617C83.8069 27.5617 80.6074 24.1524 80.6074 19.2913C80.6074 14.4572 83.8069 11.0479 88.6839 11.0479Z" fill="#F78F29"/>
<path d="M106.378 27.6067C101.776 27.6067 98.0469 24.1525 98.0469 19.2674C98.0469 14.3824 101.776 10.9521 106.378 10.9521C111.003 10.9521 114.684 14.3854 114.684 19.2674C114.684 24.1495 110.979 27.6067 106.378 27.6067ZM106.378 23.4161C108.701 23.4161 110.106 21.7818 110.106 19.2704C110.106 16.7142 108.704 15.1008 106.378 15.1008C104.03 15.1008 102.649 16.7142 102.649 19.2704C102.649 21.7818 104.03 23.4161 106.378 23.4161Z" fill="#F78F29"/>
<path d="M116.709 11.2095H121.218V27.4479H116.709V11.2095Z" fill="#F78F29"/>
<path d="M138.818 11.2095V27.4479H134.308L128.304 18.3724V27.4479H123.795V11.2095H128.304L134.308 20.3988V11.2095H138.818Z" fill="#F78F29"/>
<path d="M7.91264 50.7988C3.78319 50.7988 1.6153 48.3353 1.32227 45.7252H1.90834C2.14158 47.4254 3.49015 50.269 7.91264 50.269C11.3095 50.269 13.4206 48.1587 13.4206 45.6054C13.4206 38.3049 1.67511 42.8187 1.67511 34.8746C1.67511 32.1777 4.01942 29.7441 7.73921 29.7441C11.6055 29.7441 13.4804 32.0909 13.9199 34.0844H13.3339C12.981 32.6177 11.3992 30.2739 7.73921 30.2739C4.78191 30.2739 2.26118 32.034 2.26118 34.8776C2.26118 42.2949 14.0067 37.7811 14.0067 45.6084C14.0067 48.1018 12.0122 50.7988 7.91264 50.7988Z" fill="#414042"/>
<path d="M7.91212 50.9482C3.66008 50.9482 1.46229 48.3351 1.17224 45.7429L1.1543 45.5753H2.0364L2.05434 45.704C2.15601 46.4403 2.91552 50.1191 7.91212 50.1191C11.0159 50.1191 13.2705 48.2213 13.2705 45.6052C13.2705 42.148 10.5614 41.4326 7.69384 40.6753C4.6588 39.8731 1.52209 39.047 1.52209 34.8744C1.52209 32.3151 3.69895 29.5942 7.7357 29.5942C11.6798 29.5942 13.6084 31.9948 14.0629 34.0512L14.1018 34.2338H13.2107L13.1838 34.1201C12.8549 32.7461 11.3359 30.4234 7.7357 30.4234C5.08939 30.4234 2.40719 31.9529 2.40719 34.8773C2.40719 38.4214 5.14919 39.1457 8.04967 39.912C11.0488 40.7052 14.1527 41.5254 14.1527 45.6082C14.1556 48.2632 12.0117 50.9482 7.91212 50.9482ZM1.49219 45.8746C1.81812 48.1136 3.67204 50.6489 7.91212 50.6489C11.8143 50.6489 13.8566 48.1136 13.8566 45.6082C13.8566 41.7559 11.001 41.0016 7.97492 40.2024C5.09238 39.4391 2.10817 38.6519 2.10817 34.8773C2.10817 32.1235 4.47341 30.124 7.7357 30.124C11.4256 30.124 13.0433 32.4678 13.447 33.9345H13.728C13.2257 32.0308 11.3867 29.8936 7.73869 29.8936C3.8963 29.8936 1.8241 32.4588 1.8241 34.8744C1.8241 38.8165 4.71262 39.5798 7.77159 40.388C10.6212 41.1393 13.5696 41.9175 13.5696 45.6082C13.5696 48.3949 11.1894 50.4214 7.91212 50.4214C2.91253 50.4214 1.95268 46.8833 1.77925 45.8776H1.49219V45.8746Z" fill="#414042"/>
<path d="M16.0547 29.9507H28.6494V30.4775H22.6451V50.5922H22.059V30.4775H16.0547V29.9507Z" fill="#414042"/>
<path d="M22.7937 50.7417H21.9086V30.6269H15.9043V29.8008H28.798V30.6269H22.7937V50.7417ZM22.2076 50.4423H22.4947V30.3276H28.499V30.1001H16.2033V30.3276H22.2076V50.4423Z" fill="#414042"/>
<path d="M43.1475 44.9052H32.954L30.7861 50.5924H30.1133L37.7592 30.5645H38.3453L45.9613 50.5924H45.2885L43.1475 44.9052ZM38.0492 31.5043L33.1573 44.3754H42.9412L38.0492 31.5043Z" fill="#414042"/>
<path d="M46.177 50.7418H45.1843L43.0463 45.0546H33.0591L30.8912 50.7418H29.8984L37.658 30.4146H38.4504L46.177 50.7418ZM45.3906 50.4425H45.7434L38.2411 30.7139H37.8613L30.329 50.4425H30.6819L32.8498 44.7553H43.2496L45.3906 50.4425ZM43.1599 44.5278H32.9424L38.0497 31.085L43.1599 44.5278ZM33.376 44.2285H42.7263L38.0527 31.9261L33.376 44.2285Z" fill="#414042"/>
<path d="M63.2993 29.9805V50.5951H62.7132L49.9122 31.0371V50.5951H49.3262V29.9805H49.9122L62.7132 49.5085V29.9805H63.2993Z" fill="#414042"/>
<path d="M63.4479 50.7415H62.6316L62.5868 50.6757L50.0609 31.5367V50.7445H49.1758V29.8306H49.9921L62.5629 49.0084V29.8306H63.4479V50.7415ZM62.7931 50.4422H63.1489V30.1269H62.8619V50.0082L49.8306 30.1269H49.4748V50.4422H49.7619V30.531L62.7931 50.4422Z" fill="#414042"/>
<path d="M84.5938 40.2715C84.5938 46.7818 80.874 50.5922 73.6975 50.5922H68.2793V29.9507H73.6975C80.874 29.9507 84.5938 33.7611 84.5938 40.2715ZM73.6975 50.0654C80.6108 50.0654 84.0077 46.3119 84.0077 40.2715C84.0077 34.231 80.6108 30.4775 73.6975 30.4775H68.8654V50.0654H73.6975Z" fill="#414042"/>
<path d="M73.6966 50.7417H68.1289V29.8008H73.6966C80.8193 29.8008 84.7424 33.5184 84.7424 40.2712C84.7424 47.024 80.8193 50.7417 73.6966 50.7417ZM68.4279 50.4423H73.6966C80.6279 50.4423 84.4434 46.8295 84.4434 40.2712C84.4434 33.713 80.6279 30.1001 73.6966 30.1001H68.4279V50.4423ZM73.6966 50.2148H68.715V30.3276H73.6966C80.4425 30.3276 84.1563 33.8596 84.1563 40.2712C84.1563 46.6828 80.4425 50.2148 73.6966 50.2148ZM69.014 49.9155H73.6966C80.2481 49.9155 83.8573 46.4912 83.8573 40.2712C83.8573 34.0512 80.2481 30.6269 73.6966 30.6269H69.014V49.9155Z" fill="#414042"/>
<path d="M100.265 44.9052H90.0711L87.9033 50.5924H87.2305L94.8764 30.5645H95.4625L103.078 50.5924H102.406L100.265 44.9052ZM95.1664 31.5043L90.2745 44.3754H100.058L95.1664 31.5043Z" fill="#414042"/>
<path d="M103.293 50.7418H102.298L100.16 45.0546H90.1724L88.0045 50.7418H87.0117L94.7713 30.4146H95.5637L95.5995 30.5103L103.293 50.7418ZM102.504 50.4425H102.857L95.3543 30.7139H94.9746L87.4453 50.4425H87.7981L89.966 44.7553H100.366L102.504 50.4425ZM100.276 44.5278H90.0587L95.166 31.085L100.276 44.5278ZM90.4923 44.2285H99.8426L95.169 31.9261L90.4923 44.2285Z" fill="#414042"/>
<path d="M111.598 29.9507C116.283 29.9507 118.305 32.3273 118.305 35.7576C118.305 39.1011 116.37 41.1515 112.886 41.5346L118.451 50.5952H117.718L112.211 41.5945C112.034 41.5945 111.831 41.5945 111.654 41.5945H107.026V50.5952H106.439V29.9537H111.598V29.9507ZM111.598 30.5374H107.029V41.0347H111.657C115.876 41.0347 117.692 38.7778 117.692 35.7576C117.692 32.5608 116.023 30.5374 111.598 30.5374Z" fill="#414042"/>
<path d="M118.72 50.7417H117.638L112.13 41.7409H107.178V50.7417H106.293V29.8008H111.598C116.02 29.8008 118.454 31.917 118.454 35.7574C118.454 39.1128 116.567 41.1991 113.135 41.6541L118.72 50.7417ZM117.805 50.4423H118.185L112.635 41.4087L112.871 41.3817C116.28 41.0076 118.158 39.0111 118.158 35.7544C118.158 32.1056 115.829 30.0971 111.601 30.0971H106.595V50.4393H106.882V41.4386H112.3L117.805 50.4423ZM111.657 41.1842H106.879V30.3875H111.598C115.739 30.3875 117.841 32.1924 117.841 35.7574C117.841 39.2056 115.586 41.1842 111.657 41.1842ZM107.178 40.8848H111.657C115.398 40.8848 117.542 39.017 117.542 35.7574C117.542 32.3451 115.598 30.6868 111.598 30.6868H107.178V40.8848Z" fill="#414042"/>
<path d="M138.43 40.2715C138.43 46.7818 134.71 50.5922 127.533 50.5922H122.115V29.9507H127.533C134.71 29.9507 138.43 33.7611 138.43 40.2715ZM127.533 50.0654C134.447 50.0654 137.844 46.3119 137.844 40.2715C137.844 34.231 134.447 30.4775 127.533 30.4775H122.701V50.0654H127.533Z" fill="#414042"/>
<path d="M127.533 50.7417H121.965V29.8008H127.533C134.655 29.8008 138.578 33.5184 138.578 40.2712C138.578 47.024 134.655 50.7417 127.533 50.7417ZM122.264 50.4423H127.533C134.464 50.4423 138.279 46.8295 138.279 40.2712C138.279 33.713 134.464 30.1001 127.533 30.1001H122.264V50.4423ZM127.533 50.2148H122.551V30.3276H127.533C134.278 30.3276 137.992 33.8596 137.992 40.2712C137.992 46.6828 134.278 50.2148 127.533 50.2148ZM122.85 49.9155H127.533C134.084 49.9155 137.693 46.4912 137.693 40.2712C137.693 34.0512 134.084 30.6269 127.533 30.6269H122.85V49.9155Z" fill="#414042"/>
<path d="M139.67 0.829102H0.285156V1.72708H139.67V0.829102Z" fill="#545355"/>
<path d="M9.94882 67.157H7.17393V73.9727H1.57031V53.7861H9.95181C14.9574 53.7861 17.502 56.6207 17.502 60.515C17.502 64.0381 15.071 67.157 9.94882 67.157ZM9.4076 62.6911C11.0941 62.6911 11.7818 61.832 11.7818 60.515C11.7818 59.168 11.0941 58.309 9.4076 58.309H7.17692V62.6911H9.4076Z" fill="#414042"/>
<path d="M29.4292 74.1731C23.709 74.1731 19.0742 69.8778 19.0742 63.8074C19.0742 57.7371 23.709 53.4717 29.4292 53.4717C35.1794 53.4717 39.7544 57.7371 39.7544 63.8074C39.7544 69.8778 35.1495 74.1731 29.4292 74.1731ZM29.4292 68.9618C32.3178 68.9618 34.064 66.9294 34.064 63.8074C34.064 60.6286 32.3208 58.6261 29.4292 58.6261C26.5108 58.6261 24.7945 60.6316 24.7945 63.8074C24.7945 66.9294 26.5108 68.9618 29.4292 68.9618Z" fill="#414042"/>
<path d="M60.7797 63.8645C60.7797 69.7043 56.6891 73.9727 50.2543 73.9727H42.2734V53.7861H50.2543C56.6891 53.7861 60.7797 57.9378 60.7797 63.8645ZM49.8267 69.0189C53.0591 69.0189 55.0894 67.187 55.0894 63.8645C55.0894 60.515 53.0591 58.6532 49.8267 58.6532H47.883V69.0189H49.8267Z" fill="#414042"/>
<path d="M72.6504 53.5854C77.7128 53.5854 81.316 56.5069 82.3177 61.0866H76.2835C75.5689 59.569 74.2233 58.7399 72.5637 58.7399C69.9892 58.7399 68.3027 60.7453 68.3027 63.8374C68.3027 66.9594 69.9892 68.9619 72.5637 68.9619C74.2233 68.9619 75.5659 68.1327 76.2835 66.6151H82.3177C81.316 71.1978 77.7128 74.1163 72.6504 74.1163C66.5863 74.1163 62.6094 69.8778 62.6094 63.8374C62.6124 57.8239 66.5863 53.5854 72.6504 53.5854Z" fill="#414042"/>
<path d="M97.7371 70.6801H90.5846L89.4991 73.9727H83.6055L90.9554 53.7861H97.4201L104.743 73.9727H98.8225L97.7371 70.6801ZM94.1608 59.8565L92.0169 66.3848H96.3347L94.1608 59.8565Z" fill="#414042"/>
<path d="M114.185 74.1732C109.693 74.1732 106.204 72.027 105.977 67.7017H111.954C112.068 69.2193 112.956 69.7342 113.984 69.7342C114.986 69.7342 115.757 69.2193 115.757 68.2734C115.728 65.0377 105.947 66.5553 106.033 59.5391C106.033 55.588 109.323 53.4688 113.584 53.4688C118.218 53.4688 121.25 55.7317 121.451 59.7396H115.357C115.3 58.4795 114.529 57.9078 113.497 57.9078C112.669 57.8778 112.011 58.3657 112.011 59.3385C112.011 62.3438 121.708 61.371 121.708 67.8424C121.708 71.3954 118.963 74.1732 114.185 74.1732Z" fill="#414042"/>
<path d="M123.195 53.7861H139.498V58.2521H134.121V73.9727H128.515V58.2521H123.195V53.7861Z" fill="#414042"/>
<path d="M69.9773 93.668C57.3766 93.668 47.1621 103.893 47.1621 116.507C47.1621 129.12 57.3766 139.345 69.9773 139.345C82.5779 139.345 92.7924 129.12 92.7924 116.507C92.7924 103.893 82.5779 93.668 69.9773 93.668ZM59.1916 117.698C59.0332 117.683 58.8747 117.659 58.7192 117.647C58.468 117.626 58.3693 117.485 58.3693 117.243C58.3723 115.971 58.3723 114.696 58.3693 113.424C58.3693 113.064 58.5996 113.046 58.8687 113.058C62.1938 113.211 65.2318 114.208 67.8841 116.24C71.6757 119.147 73.8196 122.984 74.2383 127.77C74.3698 129.273 74.322 128.968 73.093 128.997C72.7163 129.006 72.3425 128.997 71.9657 128.997C71.3886 128.997 70.8085 128.977 70.2314 129.003C69.7739 129.024 69.6693 128.782 69.6513 128.396C69.5526 126.244 68.8888 124.274 67.6359 122.529C65.5607 119.638 62.75 118.006 59.1916 117.698ZM64.7594 125.789C64.7564 127.579 63.336 128.994 61.5569 128.985C59.7897 128.977 58.3544 127.525 58.3693 125.762C58.3843 124.008 59.8046 122.601 61.5629 122.598C63.357 122.598 64.7624 124.002 64.7594 125.789ZM73.3801 116.531C69.9593 112.439 65.5697 110.104 60.2591 109.529C59.7687 109.475 59.2784 109.448 58.788 109.451C58.4949 109.454 58.3723 109.326 58.3723 109.032C58.3783 107.787 58.3813 106.545 58.3723 105.3C58.3693 104.869 58.6355 104.857 58.9494 104.86C61.0605 104.878 63.1387 105.162 65.1391 105.812C74.0918 108.715 79.7133 114.75 81.9679 123.906C82.3507 125.456 82.4673 127.046 82.5121 128.638C82.5211 128.92 82.3925 128.994 82.1503 128.994C81.5014 128.994 80.8496 128.994 80.1977 128.994C80.1977 128.994 80.1977 128.994 80.1977 128.997C79.5907 128.997 78.9837 128.985 78.3767 129C78.0268 129.009 77.8953 128.878 77.8863 128.519C77.7727 124.002 76.2686 119.988 73.3801 116.531Z" fill="#F78F29"/>
<path fill-rule="evenodd" clip-rule="evenodd" d="M43.1957 104.642C43.1957 104.642 42.3734 111.757 42.2777 111.733C42.2059 111.685 43.8296 110.508 43.8296 110.508L44.5353 104.971L43.1957 104.642Z" fill="#686867"/>
<path fill-rule="evenodd" clip-rule="evenodd" d="M96.7615 104.642C96.7615 104.642 97.5838 111.757 97.6555 111.733C97.7482 111.685 96.1036 110.508 96.1036 110.508L95.4219 104.971L96.7615 104.642Z" fill="#686867"/>
<path fill-rule="evenodd" clip-rule="evenodd" d="M47.5485 106.312C48.9838 106.312 50.1619 107.491 50.1619 108.928V127.468C50.1619 128.905 48.9838 130.084 47.5485 130.084C46.1132 130.084 44.959 128.905 44.959 127.468V108.928C44.959 107.491 46.1132 106.312 47.5485 106.312Z" fill="#2E2E2C"/>
<path fill-rule="evenodd" clip-rule="evenodd" d="M92.3844 106.312C90.9731 106.312 89.7949 107.491 89.7949 108.928V127.468C89.7949 128.905 90.9731 130.084 92.3844 130.084C93.8197 130.084 94.9978 128.905 94.9978 127.468V108.928C94.9978 107.491 93.8197 106.312 92.3844 106.312Z" fill="#2E2E2C"/>
<path fill-rule="evenodd" clip-rule="evenodd" d="M44.9593 127.564C39.7115 126.103 39.7115 110.296 44.9593 108.835C44.9593 108.859 44.9593 108.907 44.9593 108.928V127.468C44.9593 127.516 44.9593 127.54 44.9593 127.564Z" fill="#1E1E1E"/>
<path fill-rule="evenodd" clip-rule="evenodd" d="M94.998 127.564C100.246 126.103 100.246 110.296 94.998 108.835C94.998 108.859 94.998 108.907 94.998 108.928V127.468C94.998 127.516 94.998 127.54 94.998 127.564Z" fill="#1E1E1E"/>
<path fill-rule="evenodd" clip-rule="evenodd" d="M47.5496 105.746C47.7858 105.746 47.9742 105.935 47.9742 106.171V130.225C47.9742 130.461 47.7858 130.65 47.5496 130.65C47.3134 130.65 47.125 130.461 47.125 130.225V106.171C47.128 105.935 47.3164 105.746 47.5496 105.746Z" fill="#ECECEC"/>
<path fill-rule="evenodd" clip-rule="evenodd" d="M92.3836 105.746C92.1474 105.746 91.959 105.935 91.959 106.171V130.225C91.959 130.461 92.1474 130.65 92.3836 130.65C92.6437 130.65 92.8321 130.461 92.8321 130.225V106.171C92.8321 105.935 92.6437 105.746 92.3836 105.746Z" fill="#ECECEC"/>
<path fill-rule="evenodd" clip-rule="evenodd" d="M42.8906 106.078C43.6681 106.267 43.7129 106.267 44.4904 106.479C48.6557 78.8215 91.2779 78.7496 95.4671 106.479C96.2206 106.267 96.2685 106.267 97.043 106.078C94.3129 71.5389 45.6446 71.4221 42.8906 106.078Z" fill="#2E2E2C"/>
<path fill-rule="evenodd" clip-rule="evenodd" d="M43.8086 106.288L44.4904 106.476C48.6557 78.8183 91.2779 78.7465 95.4671 106.476L96.125 106.288C93.3949 74.5769 46.5626 74.4841 43.8086 106.288Z" fill="#4D4C4C"/>
<path d="M45.8586 86.9033H0.285156V87.8013H45.8586V86.9033Z" fill="#545355"/>
<path d="M139.67 86.9033H93.3965V87.8013H139.67V86.9033Z" fill="#545355"/>
</svg>
